<?xml version="1.0" encoding="UTF-8"?>
<svg id="Layer_2" data-name="Layer 2" xmlns="http://www.w3.org/2000/svg" viewBox="0 0 466.67 407.47">
  <defs>
    <style>
      .cls-1 {
        fill-rule: evenodd;
      }
    </style>
  </defs>
  <path class="cls-1" d="m44.51,18.64c14.9-14.9,39.05-14.9,53.95,0l323.7,323.7c14.9,14.9,14.9,39.05,0,53.95-14.9,14.9-39.05,14.9-53.95,0L44.51,72.59c-14.9-14.9-14.9-39.05,0-53.95Z"/>
  <path class="cls-1" d="m44.51,396.29c-14.9-14.9-14.9-39.05,0-53.95L368.21,18.64c14.9-14.9,39.05-14.9,53.95,0,14.9,14.9,14.9,39.05,0,53.95L98.46,396.29c-14.9,14.9-39.05,14.9-53.95,0Z"/>
</svg>