<?xml version="1.0" encoding="UTF-8"?>
<svg id="Layer_1" data-name="Layer 1" xmlns="http://www.w3.org/2000/svg" viewBox="0 0 466.67 407.47">
  <defs>
    <style>
      .cls-1 {
        fill-rule: evenodd;
      }
    </style>
  </defs>
  <path class="cls-1" d="m0,40.8C0,22.39,14.92,7.47,33.33,7.47h400c18.41,0,33.33,14.92,33.33,33.33s-14.92,33.33-33.33,33.33H33.33C14.92,74.13,0,59.21,0,40.8Zm0,166.67c0-18.41,14.92-33.33,33.33-33.33h400c18.41,0,33.33,14.92,33.33,33.33s-14.92,33.33-33.33,33.33H33.33c-18.41,0-33.33-14.92-33.33-33.33Zm0,166.67c0-18.41,14.92-33.33,33.33-33.33h400c18.41,0,33.33,14.92,33.33,33.33s-14.92,33.33-33.33,33.33H33.33c-18.41,0-33.33-14.92-33.33-33.33Z"/>
</svg>